<svg viewBox="0 0 1286 827" preserveAspectRatio="xMaxYMax" fill="none" xmlns="http://www.w3.org/2000/svg">
<path d="M1120.12 397.5C1141.3 398.13 1197.58 402.14 1220.53 423.28C1228.31 430.45 1234.01 439.25 1234.42 449.25C1236.16 491 1206.21 699.25 1204.06 741.72" stroke="currentColor" stroke-width="5" stroke-linecap="round" stroke-linejoin="round"/>
<path d="M905.98 432.54C926.29 419.21 954.01 401.84 987.95 382.98C1034.01 357.38 1045.56 354.58 1057.84 355.66C1097.73 359.15 1123.57 401.51 1132.82 416.66C1149.79 444.47 1153.87 476.08 1162.05 539.29C1170.3 603.11 1171.17 657.26 1171.58 688.61C1171.81 705.72 1171.85 726.23 1171.72 736.18" stroke="currentColor" stroke-width="5" stroke-linecap="round" stroke-linejoin="round"/>
<path d="M1071.13 401.29C1047.83 414.54 1036.14 429.56 1029.78 440.76C1018.47 460.66 1014.81 484.64 1008.16 528.17C1004.97 549.03 1004.86 557.05 997.82 566.84C992.7 573.97 984.87 580.7 982.78 593.02C981.93 598.07 982.32 602.39 982.78 605.24" stroke="currentColor" stroke-width="5" stroke-linecap="round" stroke-linejoin="round"/>
<path d="M840.31 621.55C849.19 616.1 857.79 612.29 865.77 609.61C931.66 587.53 996.6 628.85 1013.38 640.25" stroke="currentColor" stroke-width="5" stroke-linecap="round" stroke-linejoin="round"/>
<path d="M954.04 611.09C965.54 609.09 994.27 603.3 1017.76 609.22C1046.81 616.53 1066.04 631.97 1075.05 640.25" stroke="currentColor" stroke-width="5" stroke-linecap="round" stroke-linejoin="round"/>
<path d="M773.79 447.23C781.11 496.77 790.41 547.43 801.97 599.05C803.32 605.06 804.69 615.74 806.08 621.7" stroke="currentColor" stroke-width="5" stroke-linecap="round" stroke-linejoin="round"/>
<path d="M773.79 383.46C737.34 421.47 722.91 452.06 716.65 473.62C714.28 481.79 710.58 497.27 699.63 515.02C687.93 533.98 671.6 549.63 668.81 552.28C665.32 555.59 662.57 558.42 660.36 560.28" stroke="currentColor" stroke-width="5" stroke-linecap="round" stroke-linejoin="round"/>
<path d="M716.93 574.37C686.56 560.17 658.62 558.26 643.51 564.25C627.6 570.55 620.05 581.27 620.05 581.27C618.01 584.16 617.25 585.62 616.45 587.44" stroke="currentColor" stroke-width="5" stroke-linecap="round" stroke-linejoin="round"/>
<path d="M661.91 598.75C655.09 594.72 630.32 581.11 608.09 590.93C605.85 591.92 605.08 592.41 602.74 594.05" stroke="currentColor" stroke-width="5" stroke-linecap="round" stroke-linejoin="round"/>
<path d="M1042.81 289.96C1046.45 290.09 1077.36 291.64 1094.9 316.66C1105.87 332.32 1106.26 349.52 1106.28 352.11C1106.35 359.86 1103.04 372.6 1101.76 376.87" stroke="currentColor" stroke-width="5" stroke-linecap="round" stroke-linejoin="round"/>
<path d="M856.95 718.28C927.52 731.65 1083.14 738.66 1103.66 694.88C1131.48 635.5 1146.84 576.16 1146.98 542.69" stroke="currentColor" stroke-width="5" stroke-linecap="round" stroke-linejoin="round"/>
<path d="M785.18 627.66C796.7 618.85 801.34 621.68 807.32 621.74C812.61 621.79 839.23 621.24 840.32 621.55C851.97 624.86 861.8 643.57 864.58 654.76C875.29 697.82 860.29 715.04 856.96 718.29" stroke="currentColor" stroke-width="5" stroke-linecap="round" stroke-linejoin="round"/>
<path d="M794.81 704.15C796.37 709.2 799.3 715.56 805.21 718.28C810.07 720.52 814.51 719.17 821.86 718.28C827.88 717.55 849.04 717.58 859.86 718.82" stroke="currentColor" stroke-width="5" stroke-linecap="round" stroke-linejoin="round"/>
<path d="M807.96 708.66C810.07 703.27 812.57 695.32 813.44 685.46C814.24 676.44 816.57 650 799.52 635.59C796.24 632.81 791.01 629.45 783.07 627.67" stroke="currentColor" stroke-width="5" stroke-linecap="round" stroke-linejoin="round"/>
<path d="M798.12 581.46C796.83 585.91 782.29 618.28 778.36 624.74" stroke="currentColor" stroke-width="5" stroke-linecap="round" stroke-linejoin="round"/>
<path d="M783.07 627.66C749.14 618.32 728.7 599.98 716.93 596.66C700.85 592.11 691.58 592.83 688.79 593.1C673.2 594.62 661.65 601.77 654.03 606.48C643.92 612.74 637.26 619.21 634.76 621.74C623.89 632.75 594.86 675.26 604.76 683.73C614.13 691.74 623.02 672.24 641.18 649.18C647.07 641.7 650.84 636.9 656.29 632.18C670.61 619.75 687.24 615.83 698.61 614.42" stroke="currentColor" stroke-width="5" stroke-linecap="round" stroke-linejoin="round"/>
<path d="M615.17 684.49C615.75 686.61 613.79 694.96 620.93 696.43C625.08 697.28 630.29 696.52 634.94 692.05C649.61 677.95 652.24 671.66 666.24 658.12C670.44 654.06 676.68 648.12 686.16 643.24C699.2 636.52 711.7 635.25 719.65 635.14" stroke="currentColor" stroke-width="5" stroke-linecap="round" stroke-linejoin="round"/>
<path d="M639.81 687.2C638.7 690.06 636.2 699.75 646.15 701.44C652.33 702.49 658.17 697.53 663.79 692.62C676.53 681.49 688.7 670.85 699.33 665.93C705.72 662.97 716.05 660 731.66 662.42" stroke="currentColor" stroke-width="5" stroke-linecap="round" stroke-linejoin="round"/>
<path d="M664.49 692.02C662.2 698.36 665.59 702.46 668.14 704.15C671.69 706.51 676.69 704.5 683.26 701.58C704.23 692.26 706.71 689.47 715.23 687.3C732.95 682.78 748.59 698.51 762.14 702.42C771.18 705.02 783.25 705.33 790.29 703.29C791.52 702.94 796.48 701.38 803.32 700.86C805.04 700.73 809.83 700.5 810.7 700.49" stroke="currentColor" stroke-width="5" stroke-linecap="round" stroke-linejoin="round"/>
<path d="M715.77 89.27C694.05 87.54 677.72 116.41 671.73 125.68C665.58 135.19 660.88 142.65 660.57 152.69C659.84 176.31 686.96 194.39 690.53 196.74" stroke="currentColor" stroke-width="5" stroke-linecap="round" stroke-linejoin="round"/>
<path d="M702.86 139.19C705.89 147.2 712.46 161 726.35 172.07C738.37 181.65 754.93 188.46 763.81 188.19C766.72 188.1 768.43 184.85 766.92 182.36C760.29 171.34 741.65 140.11 742.79 139.19C743.94 138.26 762.06 168.2 793.29 183.23C815.45 193.9 838.14 194.14 855.53 192.04" stroke="currentColor" stroke-width="5" stroke-linecap="round" stroke-linejoin="round"/>
<path d="M702.86 139.19C694.95 145.9 687.54 186.06 692.46 214.77C695.82 234.34 700.49 245.52 702.86 259.48C707.89 289.1 706.9 288.23 708.73 296.53C711.66 309.8 717.69 337.06 738.61 358.11C744.75 364.29 772.43 388.89 809.26 383.46C853.94 376.87 892.49 327.65 893.6 325.46" stroke="currentColor" stroke-width="5" stroke-linecap="round" stroke-linejoin="round"/>
<path d="M715.77 89.27C773.81 96.21 808.81 122.15 821.81 134.33C849.49 160.26 860.5 195.63 882.51 266.38C899.9 322.25 899.29 344.38 896.28 361.5C891.16 390.58 876.23 416.28 866.51 429.33" stroke="currentColor" stroke-width="5" stroke-linecap="round" stroke-linejoin="round"/>
<path d="M834.82 375.23C836.71 379.62 842.71 393.43 847.28 399.18C853.58 407.1 866.36 419.61 871.21 422.6" stroke="currentColor" stroke-width="5" stroke-linecap="round" stroke-linejoin="round"/>
<path d="M809.25 383.46C812.44 389.53 820.72 403.16 827.25 410.62C836.93 421.68 847.12 428.76 854.63 433.1" stroke="currentColor" stroke-width="5" stroke-linecap="round" stroke-linejoin="round"/>
<path d="M947.32 318.73C943.72 338.61 935.64 367.71 916.01 397.49C907.51 410.38 898.49 420.91 890.15 429.32" stroke="currentColor" stroke-width="5" stroke-linecap="round" stroke-linejoin="round"/>
<path d="M1038.52 130.2C1041.81 145.15 1046.05 166.73 1049.41 193.08C1052.57 217.83 1054.12 230.51 1052.81 245.23C1049.91 277.77 1036.33 301.33 1029.67 312.61C1005.54 353.46 970.94 374.46 953.44 383.46" stroke="currentColor" stroke-width="5" stroke-linecap="round" stroke-linejoin="round"/>
<path d="M676.07 118.87C669.73 94.52 698.82 76.28 722.02 58.73C751.31 36.57 780.23 27.4 797.57 23.34" stroke="currentColor" stroke-width="5" stroke-linecap="round" stroke-linejoin="round"/>
<path d="M890.94 10.77C925.72 8.48005 949.31 13.99 977.94 28.1C1017.4 47.56 1037.08 75.1101 1042.8 89.2701C1044.6 93.7301 1048.41 103.16 1046 114.54C1044.78 120.3 1039.92 129.14 1038.11 131.89" stroke="currentColor" stroke-width="5" stroke-linecap="round" stroke-linejoin="round"/>
<path d="M797.58 23.34C807.57 24.64 861.88 10.03 906.1 81.04C926.97 114.56 936.64 152.8 936.95 166.12" stroke="currentColor" stroke-width="5" stroke-linecap="round" stroke-linejoin="round"/>
<path d="M977.57 164.47C979.04 151.23 960.39 5.49998 852.83 2.86998C852.83 2.86998 820.96 1.80998 781.07 27.95" stroke="currentColor" stroke-width="5" stroke-linecap="round" stroke-linejoin="round"/>
<path d="M776.6 216.34C781.5 214.03 789.81 210.85 800.59 210.21C811.07 209.59 819.49 211.62 824.58 213.27" stroke="currentColor" stroke-width="5" stroke-linecap="round" stroke-linejoin="round"/>
<path d="M730.66 216.34C729.15 214.97 723.86 210.49 715.77 210.1C709.48 209.79 704.79 212.12 702.85 213.22" stroke="currentColor" stroke-width="5" stroke-linecap="round" stroke-linejoin="round"/>
<path d="M743.42 248.51C745.24 269.95 727.59 297.52 734.23 306.71C740.87 315.9 755.7 312.7 757.71 312.33" stroke="currentColor" stroke-width="5" stroke-linecap="round" stroke-linejoin="round"/>
<path d="M757.72 340.91C761.56 342.01 767.03 343.14 773.65 343.07C779.76 343.01 784.84 341.96 788.51 340.91" stroke="currentColor" stroke-width="5" stroke-linecap="round" stroke-linejoin="round"/>
<path d="M801.051 267.069C804.099 266.282 805.174 260.238 803.452 253.57C801.73 246.902 797.863 242.134 794.815 242.921C791.767 243.709 790.692 249.752 792.414 256.421C794.137 263.089 798.003 267.856 801.051 267.069Z" fill="currentColor" stroke="currentColor" stroke-width="3" stroke-linecap="round" stroke-linejoin="round"/>
<path d="M726.213 268.126C729.262 267.339 730.336 261.295 728.614 254.627C726.892 247.959 723.025 243.191 719.977 243.978C716.929 244.765 715.854 250.809 717.577 257.477C719.299 264.146 723.165 268.913 726.213 268.126Z" fill="currentColor" stroke="currentColor" stroke-width="3" stroke-linecap="round" stroke-linejoin="round"/>
<path d="M972.19 290.95C997.126 290.95 1017.34 265.668 1017.34 234.48C1017.34 203.292 997.126 178.01 972.19 178.01C947.254 178.01 927.04 203.292 927.04 234.48C927.04 265.668 947.254 290.95 972.19 290.95Z" stroke="currentColor" stroke-width="5" stroke-linecap="round" stroke-linejoin="round"/>
<path d="M958.85 303.25C991.937 303.25 1018.76 271.637 1018.76 232.64C1018.76 193.643 991.937 162.03 958.85 162.03C925.763 162.03 898.94 193.643 898.94 232.64C898.94 271.637 925.763 303.25 958.85 303.25Z" stroke="currentColor" stroke-width="5" stroke-linecap="round" stroke-linejoin="round"/>
<path d="M1283 800.01C1280.96 800.01 1150.3 822.36 1150.3 822.36" stroke="currentColor" stroke-width="5" stroke-linecap="round" stroke-linejoin="round"/>
<path d="M1283 752.5L1055.96 721.49" stroke="currentColor" stroke-width="5" stroke-linecap="round" stroke-linejoin="round"/>
<path d="M3 742.77L324.02 824" stroke="currentColor" stroke-width="5" stroke-linecap="round" stroke-linejoin="round"/>
<path d="M629 628.38C626.96 608.75 602.13 592.06 581.82 581.46C575.77 578.3 570.02 576.15 563.38 577.02C552.44 578.47 545.27 587.33 540.79 592.88C537.57 596.86 532.61 604.09 529.73 614.82" stroke="currentColor" stroke-width="5" stroke-linecap="round" stroke-linejoin="round"/>
<path d="M573.53 612.98C564.02 616.43 558.95 621.64 556.47 624.73C552.67 629.48 550.96 634.65 547.71 644.78C545.23 652.51 541.6 664.02 540.6 668.64" stroke="currentColor" stroke-width="5" stroke-linecap="round" stroke-linejoin="round"/>
<path d="M594.73 624.74C586.64 634.08 579.07 640.31 573.52 644.33C567.34 648.82 562.15 651.66 558.08 658.62C556.21 661.82 552.06 668.87 555.08 674.75C559.27 682.9 577.81 676.8 588.27 669.76C594.06 665.86 610.62 651.59 614.15 649.92" stroke="currentColor" stroke-width="5" stroke-linecap="round" stroke-linejoin="round"/>
<path d="M550.61 639.94C552.07 640.29 557.12 641.65 558.87 642.34C561.37 643.33 567.13 646.62 568.78 647.68" stroke="currentColor" stroke-width="5" stroke-linecap="round" stroke-linejoin="round"/>
<path d="M554.02 580.34C554.02 580.34 541.18 574.74 534.15 576.09C527.12 577.44 519.78 582.53 519.78 582.53" stroke="currentColor" stroke-width="5" stroke-linecap="round" stroke-linejoin="round"/>
<path d="M170.96 601.71L162.57 685.9C162.57 693.24 139.16 699.19 110.27 699.19C81.38 699.19 57.97 693.24 57.97 685.9L48.15 602.63" stroke="currentColor" stroke-width="5" stroke-linecap="round" stroke-linejoin="round"/>
<path d="M178.4 561.05C178.4 570.85 146.68 582.68 108.12 582.68C69.56 582.68 38.75 570.85 38.75 561.05V593.74C38.75 603.54 70.01 611.48 108.57 611.48C147.13 611.48 178.39 603.54 178.39 593.74V561.05H178.4Z" stroke="currentColor" stroke-width="5" stroke-linecap="round" stroke-linejoin="round"/>
<path d="M98.95 545.24C64.94 546.43 38.75 553.84 38.75 562.81" stroke="currentColor" stroke-width="5" stroke-linecap="round" stroke-linejoin="round"/>
<path d="M178.4 562.81C178.4 553.75 151.66 546.27 117.13 545.2" stroke="currentColor" stroke-width="5" stroke-linecap="round" stroke-linejoin="round"/>
<path d="M56.6201 570.67C56.6201 567.62 76.2001 565.1 101.64 564.69" stroke="currentColor" stroke-width="5" stroke-linecap="round" stroke-linejoin="round"/>
<path d="M114.35 564.67C140.63 564.99 161.12 567.55 161.12 570.67" stroke="currentColor" stroke-width="5" stroke-linecap="round" stroke-linejoin="round"/>
<path d="M223.54 436.03L477.44 446.96C482.23 447.17 486.31 450.5 487.46 455.16L554.88 727.83C556.73 735.32 550.36 742.28 542.74 741.09L281.54 700.38C277.24 699.71 273.77 696.53 272.72 692.31L212.61 449.42C210.88 442.42 216.36 435.73 223.56 436.04L223.54 436.03Z" stroke="currentColor" stroke-width="5" stroke-linecap="round" stroke-linejoin="round"/>
<path d="M470.5 465.88L543.45 728.47" stroke="currentColor" stroke-width="5" stroke-linecap="round" stroke-linejoin="round"/>
<path d="M551.57 737.76L780.13 707.51" stroke="currentColor" stroke-width="5" stroke-linecap="round" stroke-linejoin="round"/>
<path d="M780.95 705.19V714.15C780.95 719.24 777.27 723.58 772.25 724.41L564.49 758.7C559.58 759.51 554.56 759.5 549.66 758.66L290.51 714.49C286.15 713.71 282.81 710.16 282.29 705.76L281.66 700.37" stroke="currentColor" stroke-width="5" stroke-linecap="round" stroke-linejoin="round"/>
<path d="M773.86 705.19L700.51 694.59" stroke="currentColor" stroke-width="5" stroke-linecap="round" stroke-linejoin="round"/>
<path d="M602.76 678.98L577.48 675.41" stroke="currentColor" stroke-width="5" stroke-linecap="round" stroke-linejoin="round"/>
<path d="M551.57 670.46H540.68" stroke="currentColor" stroke-width="5" stroke-linecap="round" stroke-linejoin="round"/>
<path d="M553.39 721.85L663.73 708.66L544.42 685.56" stroke="currentColor" stroke-width="5" stroke-linecap="round" stroke-linejoin="round"/>
<path d="M630.22 712.5L546.87 695.48" stroke="currentColor" stroke-width="5" stroke-linecap="round" stroke-linejoin="round"/>
<path d="M591.84 716.9L549.22 706.21" stroke="currentColor" stroke-width="5" stroke-linecap="round" stroke-linejoin="round"/>
<path d="M550.32 709.44L616.67 700.23" stroke="currentColor" stroke-width="5" stroke-linecap="round" stroke-linejoin="round"/>
<path d="M546.87 698.52L571.71 691.99" stroke="currentColor" stroke-width="5" stroke-linecap="round" stroke-linejoin="round"/>
<path d="M3 788.44L133.14 824" stroke="currentColor" stroke-width="5" stroke-linecap="round" stroke-linejoin="round"/>
<path d="M962.62 824L1283 769.35" stroke="currentColor" stroke-width="5" stroke-linecap="round" stroke-linejoin="round"/>
<path d="M252.93 389.37C252.93 389.37 212.27 259.41 187.14 252.55C173.15 248.73 142.13 246.73 129.93 275.8C120.53 298.21 121.22 312.24 121.42 319.17C121.51 322.04 124.81 323.61 127.11 321.88L166.37 294.07C167.74 293.1 169.19 293.2 170.55 293.82C175.24 295.99 175.52 300.6 171.29 303.57C166.85 306.69 162.74 308.78 162.28 309.02C157.34 311.6 135.39 326.5 138.03 340.27C140.59 353.62 153.6 366.49 160.3 372.3C162.04 373.81 164.75 372.87 165.2 370.62C167.42 359.44 175.56 319.69 189.28 313.47C193.71 311.46 199.53 310.4 199.05 318.66C198.57 326.92 181.89 355.52 181.89 355.52C181.89 355.52 173.31 368.37 177.12 380.06C179.71 388 189.35 396.25 195.26 400.72C197.25 402.22 200.43 400.86 200.19 398.38C197.33 368.59 210.85 349.32 216.15 350.27C219.78 350.92 216.61 361.42 214.25 367.97C212.58 372.59 211.49 377.4 210.99 382.29C210.31 388.91 210.02 397.3 212.26 400.81C216.21 407.01 249.11 415.59 252.92 419.4C256.73 423.21 280.91 390.33 281.05 383.17C281.49 360.7 259.45 338.58 250.23 330.31C247.54 327.9 250.56 323.62 253.71 325.38C253.77 325.41 253.82 325.47 253.88 325.48C275.52 328.88 280.28 351.92 281.61 354.76C282.7 357.09 295.81 340.94 288.21 328.34C282.04 318.11 269.92 298.95 231.96 287.82C227.45 286.5 229.56 280.24 240.54 280.88C253.51 281.63 271.13 294.11 274.21 296.83C275.9 298.32 278.47 296.64 277.76 294.5C274.31 284.15 263.12 244.4 212.28 246.83C196.62 247.58 190.15 255.35 190.15 255.35" stroke="currentColor" stroke-width="5" stroke-linecap="round" stroke-linejoin="round"/>
<path d="M142.3 351.26C142.3 351.26 119.39 437.61 115.15 467.31C110.91 497.01 107.72 522.81 107.72 522.81" stroke="currentColor" stroke-width="5" stroke-linecap="round" stroke-linejoin="round"/>
<path d="M149.15 360.99C149.15 360.99 127.69 447.77 125.44 464.53C123.39 479.76 113.45 570.68 113.45 570.68" stroke="currentColor" stroke-width="5" stroke-linecap="round" stroke-linejoin="round"/>
<path d="M102.84 570.67C102.84 570.67 96.11 499.39 88.15 478.3C79.63 455.71 28.16 388.39 21.8 382.45C15.44 376.51 37.5 368.87 66.77 389.24C67.29 389.6 67.81 389.97 68.31 390.34C87.96 404.74 97.38 429.32 93.15 453.32L91.8 460.95C96.91 470.67 100.48 481.13 102.35 491.95L114.34 561.05" stroke="currentColor" stroke-width="5" stroke-linecap="round" stroke-linejoin="round"/>
<path d="M90.71 574.3H125.53" stroke="currentColor" stroke-width="5" stroke-linecap="round" stroke-linejoin="round"/>
<path d="M53.49 647.87L3 651.7" stroke="currentColor" stroke-width="5" stroke-linecap="round" stroke-linejoin="round"/>
<path d="M257.87 632.38L167.1 639.26" stroke="currentColor" stroke-width="5" stroke-linecap="round" stroke-linejoin="round"/>
<path d="M588.77 250.74C592.32 256.89 597.1 266.78 599.11 279.59C601.66 295.82 597.37 301.41 598.02 326.41C598.56 347.1 601.84 356.26 604.01 361.25C607.23 368.66 612.43 380.65 621.43 381.94C628.31 382.92 634.28 376.8 645.93 364.52C653.39 356.66 655.45 353.13 672.61 329.68C684.05 314.05 695.49 302.52 687.89 287.22C670.72 252.65 612.18 218.49 600.74 220.8C594.79 222 592.25 227.85 583.86 228.97C574.3 230.24 567.05 213.99 510.91 224.07C510.91 224.07 499.81 218.5 491.86 218.49C477.11 218.49 468.76 234.96 452.23 247.71C430.52 264.45 424.77 271.14 434.7 295.38C438.69 305.12 437.33 342.19 438.01 346.36" stroke="currentColor" stroke-width="5" stroke-linecap="round" stroke-linejoin="round"/>
<path d="M510.92 224.06C489.5 233.12 459.83 259.19 453.32 277.57C451.37 283.06 452.73 287.12 453.32 293.35C454.2 302.68 455.43 318.39 453.23 335.32" stroke="currentColor" stroke-width="5" stroke-linecap="round" stroke-linejoin="round"/>
<path d="M484.51 300.26C475.34 328.21 418.62 357.52 414.21 367.43C407.32 382.92 414.79 405.69 420.29 412.99C422.42 415.82 426.01 420.45 431.3 421.06C433.34 421.3 434.1 420.76 436.44 421.06C441.47 421.71 446.72 433.9 462.86 437.57C480.04 441.48 545.43 426.93 568.55 392.8" stroke="currentColor" stroke-width="5" stroke-linecap="round" stroke-linejoin="round"/>
<path d="M532.01 322.15C535.384 322.15 538.12 316.791 538.12 310.18C538.12 303.569 535.384 298.21 532.01 298.21C528.636 298.21 525.9 303.569 525.9 310.18C525.9 316.791 528.636 322.15 532.01 322.15Z" fill="currentColor" stroke="currentColor" stroke-width="3" stroke-linecap="round" stroke-linejoin="round"/>
<path d="M465.39 318.66C468.461 318.66 470.95 313.784 470.95 307.77C470.95 301.756 468.461 296.88 465.39 296.88C462.319 296.88 459.83 301.756 459.83 307.77C459.83 313.784 462.319 318.66 465.39 318.66Z" fill="currentColor" stroke="currentColor" stroke-width="3" stroke-linecap="round" stroke-linejoin="round"/>
<path d="M433.23 393.15C435.85 397.45 444.57 410.97 458.38 416.88C461.98 418.42 472.03 422.57 484.17 420.6C495.65 418.74 499.45 412.95 516.61 408.54C521.58 407.26 525.72 406.6 528.31 406.25" stroke="currentColor" stroke-width="5" stroke-linecap="round" stroke-linejoin="round"/>
<path d="M430.93 386.68C433.25 390.07 434.69 395.03 442.42 409.73C445.53 415.65 439.14 418.63 434.71 421.52" stroke="currentColor" stroke-width="5" stroke-linecap="round" stroke-linejoin="round"/>
<path d="M419.4 364.8C426.26 360.56 441.02 360.14 452.57 363.31C462.83 366.13 465.03 369.44 465.39 370.74C471.19 391.71 439.29 398.76 437.09 398.89C434.27 399.06 426.59 393.14 418.5 386.68C411.99 381.47 412.92 368.81 419.4 364.8Z" fill="currentColor" stroke="currentColor" stroke-width="5" stroke-linecap="round" stroke-linejoin="round"/>
<path d="M521.92 280.51C523.33 279.51 530.49 274.69 540.28 276.25C549.91 277.79 555.17 284.42 556.24 285.83" stroke="currentColor" stroke-width="5" stroke-linecap="round" stroke-linejoin="round"/>
<path d="M477.49 277.32C475.99 276.66 472.56 275.39 468.18 275.95C462.67 276.65 459.18 279.8 458.07 280.89" stroke="currentColor" stroke-width="5" stroke-linecap="round" stroke-linejoin="round"/>
<path d="M656.2 398.03C650.53 407.06 639.71 422.52 624.8 434.03C602.84 450.99 576.6 458.22 564.58 460.36" stroke="currentColor" stroke-width="5" stroke-linecap="round" stroke-linejoin="round"/>
<path d="M667.25 434.03C664.25 438.69 654.55 447.76 650.01 452.6C631.66 472.13 609.59 479.85 596.51 483.11" stroke="currentColor" stroke-width="5" stroke-linecap="round" stroke-linejoin="round"/>
<path d="M666.34 435.32C671.93 442.15 691.33 463.28 697.32 469.4C700.37 472.51 707.18 479.18 713.26 485.17" stroke="currentColor" stroke-width="5" stroke-linecap="round" stroke-linejoin="round"/>
<path d="M532.59 492.91C525.33 493.64 517.92 490.39 516.22 489.03C511.75 485.47 509.26 483.51 507.59 473.62C506.33 466.13 508.54 455.81 510.66 454.54C511.97 453.75 510.14 457.61 514.29 459.62C519.21 462.01 523.88 462.83 527.35 463.1" stroke="currentColor" stroke-width="5" stroke-linecap="round" stroke-linejoin="round"/>
<path d="M509.5 434.03C510.47 440.24 513.32 453.41 514.29 459.62" stroke="currentColor" stroke-width="5" stroke-linecap="round" stroke-linejoin="round"/>
<path d="M528.7 462.58L534.54 496.11C534.96 498.55 537.13 500.3 539.61 500.19L565.15 499.11C567.06 499.03 568.56 497.46 568.56 495.55V492.8" stroke="currentColor" stroke-width="5" stroke-linecap="round" stroke-linejoin="round"/>
<path d="M527.35 463.1L561.16 458.91C563.12 458.72 564.92 460.02 565.34 461.94L566.39 466.73" stroke="currentColor" stroke-width="5" stroke-linecap="round" stroke-linejoin="round"/>
<path d="M544 468.69L548.23 492.65L584.9 489.58C591.71 488.95 596.66 482.84 595.87 476.04C595.1 469.45 589.21 464.69 582.6 465.32L544 468.68V468.69Z" stroke="currentColor" stroke-width="5" stroke-linecap="round" stroke-linejoin="round"/>
<path d="M514.28 487.46V500.32C514.28 506.85 513.46 513.36 511.85 519.7L508.02 534.74" stroke="currentColor" stroke-width="5" stroke-linecap="round" stroke-linejoin="round"/>
<path d="M645.94 364.52L654.88 396.82C658.32 399.94 660.11 401.38 661.07 404.1C662.75 408.86 661.18 410.27 663.01 415.9C664.6 420.78 666.37 421.55 667.26 426.07C667.9 429.33 669.3 432.09 666.34 435.32" stroke="currentColor" stroke-width="5" stroke-linecap="round" stroke-linejoin="round"/>
</svg>
